<svg xmlns="http://www.w3.org/2000/svg" viewBox="0 0 64 64" fill="none">
  <path d="M22 29 C 16 26, 9 20, 8.5 13.5 C 8.2 8.5, 13 5, 18.5 7.5" stroke="#1c1c20" stroke-width="3.2" stroke-linecap="round" fill="none"/>
  <path d="M43 28 C 50 24, 55 17, 53.5 11 C 52.5 7, 46.5 4.5, 43.5 8" stroke="#1c1c20" stroke-width="3.2" stroke-linecap="round" fill="none"/>
  <path d="M32 25 C 40 24.5, 45 30, 44.5 38 C 44 46, 38 50, 32 49.5 C 26 49, 20 45.5, 19.5 38 C 19 30.5, 24 25, 32 25 Z" stroke="#1c1c20" stroke-width="2.8" stroke-linejoin="round" fill="none"/>
  <circle cx="26.5" cy="35.5" r="2.8" fill="#1c1c20"/>
  <circle cx="38" cy="34.5" r="2.1" fill="#1c1c20"/>
  <path d="M29 43.5 C 31 44.5, 33 44.5, 35 43.5" stroke="#c9a227" stroke-width="2.2" stroke-linecap="round" fill="none"/>
  <circle cx="23" cy="41" r="1.1" fill="#c9a227"/>
  <circle cx="41" cy="40.5" r="0.8" fill="#c9a227"/>
</svg>
